{
	"patcher" : 	{
		"fileversion" : 1,
		"appversion" : 		{
			"major" : 9,
			"minor" : 0,
			"revision" : 4,
			"architecture" : "x64",
			"modernui" : 1
		}
,
		"classnamespace" : "box",
		"rect" : [ 2022.0, 397.0, 333.0, 157.0 ],
		"openinpresentation" : 1,
		"gridsize" : [ 15.0, 15.0 ],
		"boxes" : [ 			{
				"box" : 				{
					"id" : "obj-18",
					"maxclass" : "comment",
					"numinlets" : 1,
					"numoutlets" : 0,
					"patching_rect" : [ 994.0, 180.0, 150.0, 20.0 ],
					"presentation" : 1,
					"presentation_rect" : [ 160.0, 107.0, 150.0, 20.0 ],
					"text" : "Sound Module Midi Out"
				}

			}
, 			{
				"box" : 				{
					"id" : "obj-19",
					"maxclass" : "newobj",
					"numinlets" : 1,
					"numoutlets" : 0,
					"patching_rect" : [ 844.0, 435.0, 51.0, 22.0 ],
					"text" : "s smout"
				}

			}
, 			{
				"box" : 				{
					"id" : "obj-20",
					"maxclass" : "newobj",
					"numinlets" : 1,
					"numoutlets" : 2,
					"outlettype" : [ "bang", "" ],
					"patching_rect" : [ 942.5, 243.0, 31.0, 22.0 ],
					"text" : "t b s"
				}

			}
, 			{
				"box" : 				{
					"id" : "obj-21",
					"maxclass" : "newobj",
					"numinlets" : 1,
					"numoutlets" : 1,
					"outlettype" : [ "bang" ],
					"patching_rect" : [ 844.5, 243.0, 58.0, 22.0 ],
					"text" : "loadbang"
				}

			}
, 			{
				"box" : 				{
					"id" : "obj-22",
					"maxclass" : "message",
					"numinlets" : 2,
					"numoutlets" : 1,
					"outlettype" : [ "" ],
					"patching_rect" : [ 844.5, 286.0, 129.0, 22.0 ],
					"text" : "c4Live"
				}

			}
, 			{
				"box" : 				{
					"fontname" : "Arial",
					"fontsize" : 13.0,
					"id" : "obj-35",
					"maxclass" : "newobj",
					"numinlets" : 1,
					"numoutlets" : 1,
					"outlettype" : [ "" ],
					"patching_rect" : [ 846.0, 119.0, 82.0, 23.0 ],
					"text" : "loadmess 13"
				}

			}
, 			{
				"box" : 				{
					"fontname" : "Arial",
					"fontsize" : 13.0,
					"id" : "obj-36",
					"maxclass" : "newobj",
					"numinlets" : 1,
					"numoutlets" : 1,
					"outlettype" : [ "" ],
					"patching_rect" : [ 844.0, 378.0, 85.0, 23.0 ],
					"text" : "prepend port"
				}

			}
, 			{
				"box" : 				{
					"allowdrag" : 0,
					"fontname" : "Arial",
					"fontsize" : 13.0,
					"id" : "obj-37",
					"items" : [ "Microsoft GS Wavetable Synth", ",", "Akai MAX49", ",", "MIDIOUT2 (Akai MAX49)", ",", "MIDIOUT3 (Akai MAX49)", ",", "MIDIOUT4 (Akai MAX49)", ",", "MIDIOUT5 (Akai MAX49)", ",", "Ableton Push 2", ",", "MIDIOUT2 (Ableton Push 2)", ",", "LMPort_8_MOx2Aw", ",", "LMPort_9_Max2Mox", ",", "LMPort_10_Mox2Max", ",", "billy-A", ",", "billy-B", ",", "c4Live", ",", "LMPort_1toLive", ",", "LMPort_3toLive", ",", "LMPort_2fromLive", ",", "LMPort_4fromLive", ",", "LMPort_5_Live2Mox", ",", "LMPort_6_Mox2Live", ",", "LMPort_7_Aw2MOx", ",", "Yamaha UX256-1", ",", "Yamaha UX256-2", ",", "Yamaha UX256-3", ",", "Yamaha UX256-4", ",", "Yamaha UX256-5", ",", "Yamaha UX256-6", ",", "Yamaha UX256-7", ",", "Yamaha UX256-8", ",", "Yamaha UX256-9", ",", "Yamaha UX256-10", ",", "Yamaha UX256-11", ",", "Yamaha UX256-12", ",", "Yamaha UX256-13", ",", "Yamaha UX256-14", ",", "Yamaha UX256-15", ",", "Yamaha UX256-16", ",", "RedNet Control" ],
					"labelclick" : 1,
					"maxclass" : "umenu",
					"numinlets" : 1,
					"numoutlets" : 3,
					"outlettype" : [ "int", "", "" ],
					"parameter_enable" : 0,
					"patching_rect" : [ 846.0, 177.0, 139.0, 23.0 ],
					"presentation" : 1,
					"presentation_rect" : [ 12.0, 104.0, 139.0, 23.0 ]
				}

			}
, 			{
				"box" : 				{
					"fontname" : "Arial",
					"fontsize" : 13.0,
					"id" : "obj-38",
					"maxclass" : "newobj",
					"numinlets" : 2,
					"numoutlets" : 1,
					"outlettype" : [ "" ],
					"patching_rect" : [ 846.0, 147.0, 55.0, 23.0 ],
					"text" : "midiinfo"
				}

			}
, 			{
				"box" : 				{
					"id" : "obj-9",
					"maxclass" : "comment",
					"numinlets" : 1,
					"numoutlets" : 0,
					"patching_rect" : [ 687.0, 178.5, 133.0, 20.0 ],
					"presentation" : 1,
					"presentation_rect" : [ 160.0, 74.5, 133.0, 20.0 ],
					"text" : "RTC Midi In (Ext Sync)"
				}

			}
, 			{
				"box" : 				{
					"id" : "obj-10",
					"maxclass" : "newobj",
					"numinlets" : 1,
					"numoutlets" : 0,
					"patching_rect" : [ 533.0, 343.5, 43.0, 22.0 ],
					"text" : "s smin"
				}

			}
, 			{
				"box" : 				{
					"id" : "obj-11",
					"maxclass" : "newobj",
					"numinlets" : 1,
					"numoutlets" : 2,
					"outlettype" : [ "bang", "" ],
					"patching_rect" : [ 633.0, 226.5, 31.0, 22.0 ],
					"text" : "t b s"
				}

			}
, 			{
				"box" : 				{
					"id" : "obj-12",
					"maxclass" : "newobj",
					"numinlets" : 1,
					"numoutlets" : 1,
					"outlettype" : [ "bang" ],
					"patching_rect" : [ 533.0, 226.5, 58.0, 22.0 ],
					"text" : "loadbang"
				}

			}
, 			{
				"box" : 				{
					"id" : "obj-13",
					"maxclass" : "message",
					"numinlets" : 2,
					"numoutlets" : 1,
					"outlettype" : [ "" ],
					"patching_rect" : [ 533.0, 268.5, 131.0, 22.0 ],
					"text" : "LMPort_2fromLive"
				}

			}
, 			{
				"box" : 				{
					"fontname" : "Arial",
					"fontsize" : 13.0,
					"id" : "obj-14",
					"maxclass" : "newobj",
					"numinlets" : 1,
					"numoutlets" : 1,
					"outlettype" : [ "" ],
					"patching_rect" : [ 565.0, 119.5, 82.0, 23.0 ],
					"text" : "loadmess 15"
				}

			}
, 			{
				"box" : 				{
					"fontname" : "Arial",
					"fontsize" : 13.0,
					"id" : "obj-15",
					"maxclass" : "newobj",
					"numinlets" : 1,
					"numoutlets" : 1,
					"outlettype" : [ "" ],
					"patching_rect" : [ 533.0, 304.5, 85.0, 23.0 ],
					"text" : "prepend port"
				}

			}
, 			{
				"box" : 				{
					"allowdrag" : 0,
					"fontname" : "Arial",
					"fontsize" : 13.0,
					"id" : "obj-16",
					"items" : [ "Akai MAX49", ",", "MIDIIN2 (Akai MAX49)", ",", "MIDIIN3 (Akai MAX49)", ",", "MIDIIN4 (Akai MAX49)", ",", "MIDIIN5 (Akai MAX49)", ",", "Ableton Push 2", ",", "MIDIIN2 (Ableton Push 2)", ",", "LMPort_8_MOx2Aw", ",", "LMPort_9_Max2Mox", ",", "LMPort_10_Mox2Max", ",", "billy-A", ",", "billy-B", ",", "c4Live", ",", "LMPort_1toLive", ",", "LMPort_3toLive", ",", "LMPort_2fromLive", ",", "LMPort_4fromLive", ",", "LMPort_5_Live2Mox", ",", "LMPort_6_Mox2Live", ",", "LMPort_7_Aw2MOx", ",", "Yamaha UX256-1", ",", "Yamaha UX256-2", ",", "Yamaha UX256-3", ",", "Yamaha UX256-4", ",", "Yamaha UX256-5", ",", "Yamaha UX256-6", ",", "Yamaha UX256-7", ",", "Yamaha UX256-8", ",", "RedNet Control" ],
					"labelclick" : 1,
					"maxclass" : "umenu",
					"numinlets" : 1,
					"numoutlets" : 3,
					"outlettype" : [ "int", "", "" ],
					"parameter_enable" : 0,
					"patching_rect" : [ 529.0, 178.5, 130.0, 23.0 ],
					"presentation" : 1,
					"presentation_rect" : [ 12.0, 73.0, 139.0, 23.0 ]
				}

			}
, 			{
				"box" : 				{
					"fontname" : "Arial",
					"fontsize" : 13.0,
					"id" : "obj-17",
					"maxclass" : "newobj",
					"numinlets" : 2,
					"numoutlets" : 1,
					"outlettype" : [ "" ],
					"patching_rect" : [ 529.0, 148.5, 55.0, 23.0 ],
					"text" : "midiinfo"
				}

			}
, 			{
				"box" : 				{
					"id" : "obj-5",
					"maxclass" : "comment",
					"numinlets" : 1,
					"numoutlets" : 0,
					"patching_rect" : [ 426.0, 180.0, 80.0, 20.0 ],
					"presentation" : 1,
					"presentation_rect" : [ 160.5, 44.0, 80.0, 20.0 ],
					"text" : "C4 Midi Out"
				}

			}
, 			{
				"box" : 				{
					"id" : "obj-2",
					"maxclass" : "newobj",
					"numinlets" : 1,
					"numoutlets" : 0,
					"patching_rect" : [ 277.0, 388.0, 57.0, 22.0 ],
					"text" : "s c4mout"
				}

			}
, 			{
				"box" : 				{
					"id" : "obj-3",
					"linecount" : 10,
					"maxclass" : "comment",
					"numinlets" : 1,
					"numoutlets" : 0,
					"patching_rect" : [ 48.0, 422.0, 358.0, 144.0 ],
					"text" : "the number 14 here is the index in the \"umenu\" object that will be displayed when the patch loads, but that \"default menu selection\" is display only.  No message is sent from the outlet without a corresponding \"mouseclick\" event in the Max ui.\n\nTo work around this \"user interaction\" dependent behavior and actually connect to the C4 midi port when the patch loads, this sub-patcher can \"remember\" the last midi port selected via \"user interaction\" and reload that port next time the patch loads (if you save the patch when \"your C4\" is connected)"
				}

			}
, 			{
				"box" : 				{
					"id" : "obj-6",
					"maxclass" : "newobj",
					"numinlets" : 1,
					"numoutlets" : 2,
					"outlettype" : [ "bang", "" ],
					"patching_rect" : [ 375.0, 225.0, 31.0, 22.0 ],
					"text" : "t b s"
				}

			}
, 			{
				"box" : 				{
					"id" : "obj-7",
					"maxclass" : "newobj",
					"numinlets" : 1,
					"numoutlets" : 1,
					"outlettype" : [ "bang" ],
					"patching_rect" : [ 277.0, 225.0, 58.0, 22.0 ],
					"text" : "loadbang"
				}

			}
, 			{
				"box" : 				{
					"id" : "obj-8",
					"maxclass" : "message",
					"numinlets" : 2,
					"numoutlets" : 1,
					"outlettype" : [ "" ],
					"patching_rect" : [ 277.0, 268.0, 129.0, 22.0 ],
					"text" : "LMPort_9_Max2Mox"
				}

			}
, 			{
				"box" : 				{
					"fontname" : "Arial",
					"fontsize" : 13.0,
					"id" : "obj-31",
					"maxclass" : "newobj",
					"numinlets" : 1,
					"numoutlets" : 1,
					"outlettype" : [ "" ],
					"patching_rect" : [ 278.0, 100.0, 75.0, 23.0 ],
					"text" : "loadmess 9"
				}

			}
, 			{
				"box" : 				{
					"fontname" : "Arial",
					"fontsize" : 13.0,
					"id" : "obj-32",
					"maxclass" : "newobj",
					"numinlets" : 1,
					"numoutlets" : 1,
					"outlettype" : [ "" ],
					"patching_rect" : [ 277.0, 335.0, 85.0, 23.0 ],
					"text" : "prepend port"
				}

			}
, 			{
				"box" : 				{
					"allowdrag" : 0,
					"fontname" : "Arial",
					"fontsize" : 13.0,
					"id" : "obj-33",
					"items" : [ "Microsoft GS Wavetable Synth", ",", "Akai MAX49", ",", "MIDIOUT2 (Akai MAX49)", ",", "MIDIOUT3 (Akai MAX49)", ",", "MIDIOUT4 (Akai MAX49)", ",", "MIDIOUT5 (Akai MAX49)", ",", "Ableton Push 2", ",", "MIDIOUT2 (Ableton Push 2)", ",", "LMPort_8_MOx2Aw", ",", "LMPort_9_Max2Mox", ",", "LMPort_10_Mox2Max", ",", "billy-A", ",", "billy-B", ",", "c4Live", ",", "LMPort_1toLive", ",", "LMPort_3toLive", ",", "LMPort_2fromLive", ",", "LMPort_4fromLive", ",", "LMPort_5_Live2Mox", ",", "LMPort_6_Mox2Live", ",", "LMPort_7_Aw2MOx", ",", "Yamaha UX256-1", ",", "Yamaha UX256-2", ",", "Yamaha UX256-3", ",", "Yamaha UX256-4", ",", "Yamaha UX256-5", ",", "Yamaha UX256-6", ",", "Yamaha UX256-7", ",", "Yamaha UX256-8", ",", "Yamaha UX256-9", ",", "Yamaha UX256-10", ",", "Yamaha UX256-11", ",", "Yamaha UX256-12", ",", "Yamaha UX256-13", ",", "Yamaha UX256-14", ",", "Yamaha UX256-15", ",", "Yamaha UX256-16", ",", "RedNet Control" ],
					"labelclick" : 1,
					"maxclass" : "umenu",
					"numinlets" : 1,
					"numoutlets" : 3,
					"outlettype" : [ "int", "", "" ],
					"parameter_enable" : 0,
					"patching_rect" : [ 278.0, 175.0, 123.0, 23.0 ],
					"presentation" : 1,
					"presentation_rect" : [ 12.0, 42.5, 139.0, 23.0 ]
				}

			}
, 			{
				"box" : 				{
					"fontname" : "Arial",
					"fontsize" : 13.0,
					"id" : "obj-34",
					"maxclass" : "newobj",
					"numinlets" : 2,
					"numoutlets" : 1,
					"outlettype" : [ "" ],
					"patching_rect" : [ 278.0, 135.0, 55.0, 23.0 ],
					"text" : "midiinfo"
				}

			}
, 			{
				"box" : 				{
					"id" : "obj-4",
					"maxclass" : "comment",
					"numinlets" : 1,
					"numoutlets" : 0,
					"patching_rect" : [ 204.0, 161.0, 69.0, 20.0 ],
					"presentation" : 1,
					"presentation_rect" : [ 160.5, 13.5, 69.0, 20.0 ],
					"text" : "C4 Midi In "
				}

			}
, 			{
				"box" : 				{
					"id" : "obj-51",
					"maxclass" : "newobj",
					"numinlets" : 1,
					"numoutlets" : 0,
					"patching_rect" : [ 54.0, 321.0, 50.0, 22.0 ],
					"text" : "s c4min"
				}

			}
, 			{
				"box" : 				{
					"id" : "obj-1",
					"maxclass" : "newobj",
					"numinlets" : 1,
					"numoutlets" : 2,
					"outlettype" : [ "bang", "" ],
					"patching_rect" : [ 154.0, 207.0, 31.0, 22.0 ],
					"text" : "t b s"
				}

			}
, 			{
				"box" : 				{
					"id" : "obj-23",
					"maxclass" : "newobj",
					"numinlets" : 1,
					"numoutlets" : 1,
					"outlettype" : [ "bang" ],
					"patching_rect" : [ 54.0, 207.0, 58.0, 22.0 ],
					"text" : "loadbang"
				}

			}
, 			{
				"box" : 				{
					"id" : "obj-43",
					"maxclass" : "message",
					"numinlets" : 2,
					"numoutlets" : 1,
					"outlettype" : [ "" ],
					"patching_rect" : [ 54.0, 248.5, 131.0, 22.0 ],
					"text" : "LMPort_10_Mox2Max"
				}

			}
, 			{
				"box" : 				{
					"fontname" : "Arial",
					"fontsize" : 13.0,
					"id" : "obj-27",
					"maxclass" : "newobj",
					"numinlets" : 1,
					"numoutlets" : 1,
					"outlettype" : [ "" ],
					"patching_rect" : [ 86.0, 100.0, 75.0, 23.0 ],
					"text" : "loadmess 9"
				}

			}
, 			{
				"box" : 				{
					"fontname" : "Arial",
					"fontsize" : 13.0,
					"id" : "obj-28",
					"maxclass" : "newobj",
					"numinlets" : 1,
					"numoutlets" : 1,
					"outlettype" : [ "" ],
					"patching_rect" : [ 54.0, 282.0, 85.0, 23.0 ],
					"text" : "prepend port"
				}

			}
, 			{
				"box" : 				{
					"allowdrag" : 0,
					"fontname" : "Arial",
					"fontsize" : 13.0,
					"id" : "obj-29",
					"items" : [ "Akai MAX49", ",", "MIDIIN2 (Akai MAX49)", ",", "MIDIIN3 (Akai MAX49)", ",", "MIDIIN4 (Akai MAX49)", ",", "MIDIIN5 (Akai MAX49)", ",", "Ableton Push 2", ",", "MIDIIN2 (Ableton Push 2)", ",", "LMPort_8_MOx2Aw", ",", "LMPort_9_Max2Mox", ",", "LMPort_10_Mox2Max", ",", "billy-A", ",", "billy-B", ",", "c4Live", ",", "LMPort_1toLive", ",", "LMPort_3toLive", ",", "LMPort_2fromLive", ",", "LMPort_4fromLive", ",", "LMPort_5_Live2Mox", ",", "LMPort_6_Mox2Live", ",", "LMPort_7_Aw2MOx", ",", "Yamaha UX256-1", ",", "Yamaha UX256-2", ",", "Yamaha UX256-3", ",", "Yamaha UX256-4", ",", "Yamaha UX256-5", ",", "Yamaha UX256-6", ",", "Yamaha UX256-7", ",", "Yamaha UX256-8", ",", "RedNet Control" ],
					"labelclick" : 1,
					"maxclass" : "umenu",
					"numinlets" : 1,
					"numoutlets" : 3,
					"outlettype" : [ "int", "", "" ],
					"parameter_enable" : 0,
					"patching_rect" : [ 50.0, 159.0, 130.0, 23.0 ],
					"presentation" : 1,
					"presentation_rect" : [ 12.0, 12.0, 139.0, 23.0 ]
				}

			}
, 			{
				"box" : 				{
					"fontname" : "Arial",
					"fontsize" : 13.0,
					"id" : "obj-30",
					"maxclass" : "newobj",
					"numinlets" : 2,
					"numoutlets" : 1,
					"outlettype" : [ "" ],
					"patching_rect" : [ 50.0, 129.0, 55.0, 23.0 ],
					"text" : "midiinfo"
				}

			}
 ],
		"lines" : [ 			{
				"patchline" : 				{
					"destination" : [ "obj-43", 1 ],
					"source" : [ "obj-1", 1 ]
				}

			}
, 			{
				"patchline" : 				{
					"destination" : [ "obj-43", 0 ],
					"source" : [ "obj-1", 0 ]
				}

			}
, 			{
				"patchline" : 				{
					"destination" : [ "obj-13", 1 ],
					"source" : [ "obj-11", 1 ]
				}

			}
, 			{
				"patchline" : 				{
					"destination" : [ "obj-13", 0 ],
					"source" : [ "obj-11", 0 ]
				}

			}
, 			{
				"patchline" : 				{
					"destination" : [ "obj-13", 0 ],
					"source" : [ "obj-12", 0 ]
				}

			}
, 			{
				"patchline" : 				{
					"destination" : [ "obj-15", 0 ],
					"source" : [ "obj-13", 0 ]
				}

			}
, 			{
				"patchline" : 				{
					"destination" : [ "obj-17", 1 ],
					"source" : [ "obj-14", 0 ]
				}

			}
, 			{
				"patchline" : 				{
					"destination" : [ "obj-10", 0 ],
					"source" : [ "obj-15", 0 ]
				}

			}
, 			{
				"patchline" : 				{
					"destination" : [ "obj-11", 0 ],
					"source" : [ "obj-16", 1 ]
				}

			}
, 			{
				"patchline" : 				{
					"destination" : [ "obj-16", 0 ],
					"source" : [ "obj-17", 0 ]
				}

			}
, 			{
				"patchline" : 				{
					"destination" : [ "obj-22", 1 ],
					"source" : [ "obj-20", 1 ]
				}

			}
, 			{
				"patchline" : 				{
					"destination" : [ "obj-22", 0 ],
					"source" : [ "obj-20", 0 ]
				}

			}
, 			{
				"patchline" : 				{
					"destination" : [ "obj-22", 0 ],
					"source" : [ "obj-21", 0 ]
				}

			}
, 			{
				"patchline" : 				{
					"destination" : [ "obj-36", 0 ],
					"source" : [ "obj-22", 0 ]
				}

			}
, 			{
				"patchline" : 				{
					"destination" : [ "obj-43", 0 ],
					"source" : [ "obj-23", 0 ]
				}

			}
, 			{
				"patchline" : 				{
					"destination" : [ "obj-30", 1 ],
					"source" : [ "obj-27", 0 ]
				}

			}
, 			{
				"patchline" : 				{
					"destination" : [ "obj-51", 0 ],
					"source" : [ "obj-28", 0 ]
				}

			}
, 			{
				"patchline" : 				{
					"destination" : [ "obj-1", 0 ],
					"source" : [ "obj-29", 1 ]
				}

			}
, 			{
				"patchline" : 				{
					"destination" : [ "obj-29", 0 ],
					"source" : [ "obj-30", 0 ]
				}

			}
, 			{
				"patchline" : 				{
					"destination" : [ "obj-34", 0 ],
					"source" : [ "obj-31", 0 ]
				}

			}
, 			{
				"patchline" : 				{
					"destination" : [ "obj-2", 0 ],
					"source" : [ "obj-32", 0 ]
				}

			}
, 			{
				"patchline" : 				{
					"destination" : [ "obj-6", 0 ],
					"source" : [ "obj-33", 1 ]
				}

			}
, 			{
				"patchline" : 				{
					"destination" : [ "obj-33", 0 ],
					"source" : [ "obj-34", 0 ]
				}

			}
, 			{
				"patchline" : 				{
					"destination" : [ "obj-38", 0 ],
					"source" : [ "obj-35", 0 ]
				}

			}
, 			{
				"patchline" : 				{
					"destination" : [ "obj-19", 0 ],
					"source" : [ "obj-36", 0 ]
				}

			}
, 			{
				"patchline" : 				{
					"destination" : [ "obj-20", 0 ],
					"source" : [ "obj-37", 1 ]
				}

			}
, 			{
				"patchline" : 				{
					"destination" : [ "obj-37", 0 ],
					"source" : [ "obj-38", 0 ]
				}

			}
, 			{
				"patchline" : 				{
					"destination" : [ "obj-28", 0 ],
					"source" : [ "obj-43", 0 ]
				}

			}
, 			{
				"patchline" : 				{
					"destination" : [ "obj-8", 1 ],
					"source" : [ "obj-6", 1 ]
				}

			}
, 			{
				"patchline" : 				{
					"destination" : [ "obj-8", 0 ],
					"source" : [ "obj-6", 0 ]
				}

			}
, 			{
				"patchline" : 				{
					"destination" : [ "obj-8", 0 ],
					"source" : [ "obj-7", 0 ]
				}

			}
, 			{
				"patchline" : 				{
					"destination" : [ "obj-32", 0 ],
					"source" : [ "obj-8", 0 ]
				}

			}
 ],
		"originid" : "pat-16"
	}

}
